<?xml version="1.0" standalone="no"?>
<!DOCTYPE svg PUBLIC "-//W3C//DTD SVG 20010904//EN"
 "http://www.w3.org/TR/2001/REC-SVG-20010904/DTD/svg10.dtd">
<svg version="1.0" xmlns="http://www.w3.org/2000/svg"
 width="256.000000pt" height="256.000000pt" viewBox="0 0 256.000000 256.000000"
 preserveAspectRatio="xMidYMid meet">

<g transform="translate(0.000000,256.000000) scale(0.100000,-0.100000)"
fill="#000000" stroke="none">
<path d="M0 1280 l0 -1280 1280 0 1280 0 0 1280 0 1280 -1280 0 -1280 0 0
-1280z m1884 900 c127 -40 243 -155 291 -290 18 -51 20 -88 23 -528 3 -553 -3
-657 -47 -746 -16 -33 -37 -70 -46 -81 -16 -20 -16 -19 -5 3 6 12 8 28 4 34
-5 7 -3 8 6 3 10 -6 12 -4 7 9 -4 9 -3 15 2 12 5 -3 9 5 9 19 0 20 -7 14 -38
-33 -47 -73 -108 -126 -179 -154 -53 -21 -74 -23 -376 -28 -246 -5 -277 -6
-135 -8 147 -2 182 -5 172 -14 -18 -18 -738 -24 -831 -8 -186 32 -330 176
-361 360 -7 43 -10 243 -8 590 3 485 5 529 22 575 26 67 60 121 110 173 50 53
91 79 170 108 60 23 66 23 602 23 518 1 545 0 608 -19z m-147 -1796 c-3 -3
-12 -4 -19 -1 -8 3 -5 6 6 6 11 1 17 -2 13 -5z"/>
<path d="M720 2124 c-116 -31 -220 -132 -261 -251 -19 -57 -20 -81 -17 -614
l3 -554 31 -65 c45 -93 129 -170 212 -195 l22 -6 0 250 c0 238 1 252 20 271
25 25 61 26 90 2 20 -16 22 -29 27 -167 3 -104 1 -164 -7 -195 -7 -25 -15 -73
-17 -107 l-5 -63 34 0 33 0 0 333 c0 316 4 362 29 379 22 15 73 8 91 -12 18
-20 18 -20 -27 -14 -25 4 -48 2 -50 -2 -3 -5 -9 -161 -13 -347 l-7 -337 76 0
76 0 0 455 0 456 25 24 c30 30 54 31 89 4 l26 -20 0 -289 c0 -198 -3 -289 -11
-292 -7 -2 -11 -61 -12 -171 l-2 -167 33 0 32 0 0 320 0 321 25 24 c28 29 55
32 82 8 19 -17 19 -27 12 -188 -4 -93 -8 -209 -8 -257 l-1 -87 -32 11 c-18 6
-36 16 -40 22 -4 6 -8 -30 -8 -81 l0 -91 71 -4 c39 -2 73 -1 75 2 3 2 4 201 4
443 -1 327 1 442 10 453 16 19 85 18 104 -2 18 -17 22 -39 6 -29 -6 4 -10 -18
-11 -57 -1 -35 -5 -76 -9 -93 -8 -30 -8 -30 -9 -4 0 15 -12 37 -26 50 -18 18
-25 34 -25 66 0 24 5 43 13 46 9 4 9 6 -1 6 -7 1 -14 -5 -16 -11 -3 -7 -7
-205 -10 -440 l-6 -428 75 0 75 0 0 544 0 545 26 20 c35 27 59 26 89 -4 l25
-24 0 -238 0 -237 -57 -58 c-60 -61 -67 -96 -8 -38 l35 34 -1 -160 c0 -87 -4
-151 -8 -141 -4 10 -11 19 -16 19 -18 1 -43 23 -48 43 -2 11 -5 -53 -6 -142
l-1 -163 75 0 75 0 0 663 c0 630 1 665 18 680 19 17 68 22 88 9 30 -20 34 -55
34 -304 l-1 -253 -54 -55 c-30 -30 -55 -59 -55 -65 0 -5 18 9 40 30 l40 39 0
-252 c0 -139 -3 -252 -6 -252 -3 0 -19 8 -34 17 -23 13 -30 25 -33 57 -2 23
-4 -39 -5 -138 l-2 -179 41 7 c133 21 248 138 280 284 6 31 9 245 7 588 l-3
539 -33 67 c-56 114 -139 183 -257 214 -76 21 -1038 19 -1115 -2z m1114 -72
c2 -4 -8 -39 -23 -77 -29 -77 -54 -95 -71 -51 -10 27 -24 33 -35 16 -3 -5 -71
-61 -150 -125 -94 -76 -150 -129 -162 -153 -22 -43 -51 -55 -88 -36 -24 13
-29 12 -59 -11 -17 -13 -59 -36 -91 -51 -33 -15 -70 -38 -83 -52 -19 -20 -30
-23 -59 -19 -32 6 -41 1 -108 -56 -49 -41 -74 -69 -74 -84 -1 -28 -34 -63 -60
-63 -11 0 -33 8 -49 17 l-29 17 -67 -58 c-48 -42 -71 -56 -83 -51 -15 6 -8 16
40 60 32 29 70 58 85 64 15 6 32 22 37 34 14 31 59 51 85 37 18 -10 30 -2 100
61 44 40 77 76 74 80 -8 14 43 59 66 59 11 0 29 -9 40 -20 20 -20 20 -20 58
-1 80 42 137 86 140 109 5 32 45 49 83 35 29 -11 35 -8 157 89 70 56 144 117
165 135 l37 33 -26 10 c-40 15 -23 34 42 46 75 14 102 16 108 6z m-1114 -66
c0 -46 -3 -56 -20 -61 -11 -3 -28 -17 -39 -31 -15 -19 -28 -24 -65 -24 -52 0
-54 5 -27 66 18 40 56 75 102 93 45 18 49 14 49 -43z m118 22 c18 -11 41 -37
52 -59 22 -42 26 -64 10 -54 -5 3 -10 2 -10 -4 0 -5 8 -11 18 -13 9 -3 -5 -6
-31 -9 -45 -4 -50 -2 -63 24 -8 15 -26 33 -39 39 -22 10 -25 18 -25 61 0 49 0
49 28 42 15 -3 42 -16 60 -27z m360 -94 c-2 -64 -7 -109 -13 -109 -13 0 -23
213 -10 226 19 19 26 -11 23 -117z m132 57 c0 -38 2 -76 5 -84 3 -7 0 -14 -7
-14 -7 0 -21 -4 -30 -8 -13 -5 -18 -3 -18 8 0 9 5 19 10 22 6 3 10 37 10 76 0
55 3 69 15 69 12 0 15 -14 15 -69z m-255 33 c12 -12 13 -19 4 -30 -15 -18 -33
-18 -49 1 -10 12 -10 18 0 30 16 19 25 19 45 -1z m-7 -147 c2 -55 0 -67 -13
-67 -12 0 -15 14 -15 71 0 52 3 70 13 67 7 -3 13 -29 15 -71z m958 -16 c-10
-16 -36 -13 -43 5 -8 22 18 37 36 20 7 -8 10 -19 7 -25z m-1391 -9 c6 -4 18
-19 27 -34 10 -14 27 -29 38 -33 16 -5 20 -15 20 -56 0 -52 -3 -55 -44 -39
-63 23 -141 127 -121 160 7 11 65 13 80 2z m254 -32 c-12 -33 -24 -41 -16 -10
3 11 2 20 -2 20 -14 0 -101 -90 -101 -104 0 -8 -4 -18 -10 -21 -6 -4 -10 9
-10 33 0 32 5 41 25 50 14 7 30 23 37 37 9 20 18 25 49 25 38 0 38 0 28 -30z
m1136 -56 c0 -10 -8 -20 -18 -22 -22 -4 -35 27 -16 39 20 12 34 5 34 -17z
m-327 -30 c27 -19 28 -38 1 -75 -35 -50 -99 -30 -99 31 0 30 30 60 60 60 9 0
26 -7 38 -16z m329 -70 c9 -23 -13 -40 -32 -24 -12 10 -13 16 -4 26 15 18 28
18 36 -2z m-527 -79 c0 -16 -6 -25 -15 -25 -9 0 -15 9 -15 25 0 16 6 25 15 25
9 0 15 -9 15 -25z m-905 -5 c4 -6 -8 -10 -29 -10 -20 0 -36 5 -36 10 0 6 13
10 29 10 17 0 33 -4 36 -10z m83 -1 c-2 -6 -7 -10 -11 -10 -4 1 -14 1 -23 1
-8 0 -12 5 -9 10 8 13 48 13 43 -1z m77 2 c3 -5 1 -12 -4 -15 -12 -8 -41 3
-41 15 0 12 37 12 45 0z m115 -1 c0 -5 -16 -10 -35 -10 -19 0 -35 5 -35 10 0
6 16 10 35 10 19 0 35 -4 35 -10z m1157 -26 c9 -23 -13 -40 -32 -24 -12 10
-13 16 -4 26 15 18 28 18 36 -2z m-699 -79 c-4 -70 -28 -72 -28 -2 0 29 3 57
7 61 14 14 24 -13 21 -59z m190 49 c26 -18 27 -66 2 -70 -8 -1 -27 -5 -42 -9
-21 -5 -29 -2 -37 13 -15 29 -14 39 9 62 24 24 38 25 68 4z m509 -80 c3 -8 1
-20 -6 -27 -14 -14 -47 15 -37 32 10 16 36 13 43 -5z m-702 -77 c0 -39 -19
-38 -23 2 -3 24 0 32 10 29 7 -3 13 -17 13 -31z m-350 -58 c0 -59 -3 -74 -15
-74 -12 0 -15 15 -16 70 -1 76 2 88 19 82 8 -2 12 -31 12 -78z m1023 19 c-14
-11 -16 -64 -21 -402 -4 -251 -10 -393 -16 -399 -8 -8 -11 111 -11 394 0 223
3 409 7 412 3 4 18 7 32 7 22 0 23 -2 9 -12z m-657 -47 c23 -19 23 -19 5 -40
-25 -27 -54 -36 -71 -21 -22 18 -18 47 7 64 28 20 31 20 59 -3z m-723 -156
c-4 -87 -22 -88 -26 -2 -2 56 0 67 13 67 13 0 15 -11 13 -65z m200 39 c50 -35
10 -122 -50 -110 -54 11 -73 60 -42 104 18 26 59 29 92 6z m174 -41 c2 -5 1
-28 -3 -53 l-6 -45 -1 43 c-2 34 -6 44 -24 52 -22 8 -22 9 4 9 15 1 28 -2 30
-6z m-374 -155 c-4 -74 -28 -77 -28 -4 0 44 3 56 16 56 12 0 14 -10 12 -52z
m36 -144 c21 -20 21 -38 0 -30 -79 30 -87 20 -85 -108 1 -58 -2 -106 -7 -106
-24 0 -32 29 -32 119 0 83 3 97 22 118 25 27 79 31 102 7z"/>
<path d="M1317 1699 c-19 -11 -23 -34 -7 -44 15 -9 50 4 50 19 0 22 -23 36
-43 25z"/>
<path d="M1004 1559 c-3 -6 1 -18 9 -27 13 -12 19 -13 31 -3 8 7 12 19 9 27
-6 17 -39 19 -49 3z"/>
<path d="M747 1374 c-4 -4 -7 -16 -7 -26 0 -14 6 -19 23 -16 14 2 22 10 22 23
0 20 -25 32 -38 19z"/>
<path d="M1640 1685 c-16 -20 -6 -45 19 -45 26 0 45 32 29 48 -16 16 -33 15
-48 -3z"/>
<path d="M1471 1476 c-9 -10 -8 -16 4 -26 19 -16 41 1 32 24 -8 20 -21 20 -36
2z"/>
<path d="M1295 1230 c-3 -5 3 -10 14 -10 12 0 21 5 21 10 0 6 -6 10 -14 10 -8
0 -18 -4 -21 -10z"/>
<path d="M757 1123 c-12 -11 -8 -40 7 -52 11 -9 18 -8 30 4 19 20 20 27 4 43
-13 13 -31 16 -41 5z"/>
<path d="M1109 681 c-13 -11 -21 -22 -18 -25 3 -3 16 5 29 19 28 30 22 33 -11
6z"/>
<path d="M1113 433 c9 -2 25 -2 35 0 9 3 1 5 -18 5 -19 0 -27 -2 -17 -5z"/>
<path d="M1073 393 c15 -2 39 -2 55 0 15 2 2 4 -28 4 -30 0 -43 -2 -27 -4z"/>
</g>
</svg>
